<svg xmlns="http://www.w3.org/2000/svg" width="16" height="16" fill="currentColor" class="ai ai-nuts" viewBox="0 0 16 16">
  <path d="M 7.99 16 C 3.496 15.998 -0.004 12.503 0 8.018 C 0.003 3.561 3.548 0.002 7.986 0 C 12.444 -0.002 16.012 3.603 16 8.096 C 15.988 12.482 12.42 16.002 7.99 16 z M 8.097 0.561 C 4.074 0.474 0.608 3.793 0.53 7.807 C 0.45 11.894 3.688 15.368 7.671 15.47 c 4.264 0.109 7.687 -3.137 7.769 -7.365 C 15.518 4.04 12.218 0.649 8.097 0.561 z"/>
  <path d="M 8.037 7.813 c 0.878 0 1.755 0.008 2.632 -0.004 c 0.353 -0.004 0.579 0.063 0.553 0.493 c -0.091 1.522 -0.302 3.007 -1.333 4.225 c -1.132 1.338 -2.673 1.349 -3.798 0.005 c -1.04 -1.242 -1.304 -2.738 -1.307 -4.309 c -0.001 -0.418 0.248 -0.414 0.538 -0.413 C 6.228 7.816 7.132 7.813 8.037 7.813 z M 5.657 9.247 c 0.091 0.632 0.221 1.383 0.685 2.024 c 0.133 0.184 0.316 0.353 0.546 0.204 c 0.2 -0.13 0.124 -0.332 0.004 -0.503 c -0.404 -0.577 -0.562 -1.232 -0.608 -1.923 c -0.015 -0.231 -0.089 -0.472 -0.365 -0.44 C 5.652 8.641 5.628 8.89 5.657 9.247 z"/>
  <path d="M 7.971 7.3 c -0.933 0 -1.867 0.017 -2.8 -0.008 c -0.392 -0.01 -0.84 0.048 -1.043 -0.462 c -0.2 -0.504 -0.155 -0.962 0.149 -1.404 c 0.177 -0.257 0.416 -0.447 0.691 -0.569 c 1.985 -0.883 3.991 -0.886 5.975 -0.029 c 0.593 0.256 1.03 0.708 0.998 1.466 c -0.027 0.624 -0.261 0.993 -0.925 0.993 c -1.015 0 -2.031 0 -3.046 0 C 7.971 7.29 7.971 7.295 7.971 7.3 z"/>
  <path d="M 7.647 3.409 c 0.121 -0.438 0.181 -0.87 0.427 -1.243 c 0.123 -0.187 0.28 -0.263 0.48 -0.175 c 0.26 0.115 0.224 0.315 0.14 0.545 c -0.12 0.328 -0.209 0.668 -0.303 1.005 c -0.061 0.217 -0.122 0.436 -0.412 0.399 C 7.639 3.898 7.653 3.636 7.647 3.409 z"/>
</svg>
