<svg xmlns="http://www.w3.org/2000/svg" width="16" height="16" fill="currentColor" class="ai ai-peanuts" viewBox="0 0 16 16">
  <path d="M 16 8.02 c 0.012 4.363 -3.537 7.944 -7.911 7.979 C 3.635 16.036 0.018 12.472 0 8.028 C -0.018 3.63 3.556 0.025 7.96 0 C 12.398 -0.025 15.988 3.555 16 8.02 z M 0.595 7.972 C 0.587 12.108 3.924 15.467 8.033 15.457 c 4.032 -0.009 7.429 -3.423 7.424 -7.46 C 15.453 3.954 12.131 0.612 8.101 0.596 C 3.899 0.579 0.603 3.817 0.595 7.972 z"/>
  <path d="M 7.891 13.848 c -1.036 0.006 -1.932 -0.482 -2.504 -1.504 c -0.595 -1.061 -0.678 -2.177 0.035 -3.184 c 0.872 -1.234 1.08 -2.434 0.399 -3.836 c -0.455 -0.936 -0.036 -2.095 0.788 -2.711 c 0.834 -0.623 1.934 -0.633 2.754 -0.027 c 0.878 0.649 1.289 1.791 0.812 2.77 c -0.67 1.374 -0.459 2.552 0.39 3.76 c 0.707 1.007 0.661 2.128 0.081 3.19 C 10.089 13.323 9.2 13.844 7.891 13.848 z M 8.106 5.725 c -0.058 -0.167 -0.021 -0.412 -0.263 -0.443 c -0.166 -0.022 -0.229 0.125 -0.177 0.27 c 0.058 0.163 0.004 0.419 0.251 0.45 C 8.072 6.021 8.127 5.878 8.106 5.725 z M 6.993 4.155 c 0.061 -0.164 -0.04 -0.304 -0.167 -0.284 c -0.207 0.033 -0.248 0.255 -0.303 0.436 c -0.048 0.159 0.005 0.292 0.168 0.279 C 6.933 4.568 6.894 4.304 6.993 4.155 z M 9.204 7.56 c -0.022 -0.181 0.015 -0.417 -0.224 -0.459 c -0.146 -0.026 -0.228 0.127 -0.206 0.278 c 0.026 0.18 0.012 0.417 0.237 0.462 C 9.185 7.877 9.194 7.695 9.204 7.56 z M 7.03 7.816 c -0.225 0.04 -0.259 0.235 -0.31 0.41 c -0.037 0.129 -0.075 0.294 0.123 0.305 c 0.256 0.014 0.246 -0.246 0.327 -0.397 C 7.241 8.003 7.198 7.874 7.03 7.816 z M 6.613 9.07 c -0.417 0.024 -0.432 0.314 -0.486 0.557 c -0.009 0.038 0.112 0.156 0.146 0.146 C 6.581 9.679 6.621 9.429 6.613 9.07 z M 10.193 9.954 c -0.006 -0.164 -0.013 -0.371 -0.213 -0.374 c -0.199 -0.003 -0.227 0.192 -0.207 0.363 c 0.019 0.159 0.036 0.365 0.228 0.374 C 10.24 10.328 10.171 10.1 10.193 9.954 z M 6.038 11.103 c 0.204 -0.049 0.215 -0.207 0.209 -0.371 c -0.006 -0.154 0.018 -0.359 -0.197 -0.364 c -0.205 -0.004 -0.217 0.19 -0.22 0.351 C 5.825 10.884 5.86 11.034 6.038 11.103 z M 6.688 5.032 c -0.136 0.397 -0.181 0.634 0.042 0.842 c 0.037 0.035 0.185 0.027 0.207 -0.008 C 7.111 5.589 6.934 5.386 6.688 5.032 z M 9.124 6.514 c 0.194 -0.131 0.248 -0.327 0.242 -0.549 c -0.003 -0.125 -0.086 -0.227 -0.192 -0.182 c -0.221 0.093 -0.258 0.314 -0.261 0.529 C 8.91 6.436 9.008 6.488 9.124 6.514 z M 7.011 6.439 c -0.144 0.299 -0.176 0.534 0.032 0.755 c 0.028 0.029 0.185 0.002 0.203 -0.037 C 7.378 6.884 7.312 6.659 7.011 6.439 z M 7.799 11.366 c 0.107 -0.31 0.202 -0.538 -0.058 -0.72 c -0.029 -0.021 -0.124 -0.003 -0.144 0.026 C 7.437 10.919 7.51 11.123 7.799 11.366 z M 6.329 11.664 c -0.132 0.024 -0.22 0.102 -0.177 0.221 c 0.065 0.177 0.147 0.37 0.347 0.43 c 0.103 0.031 0.242 -0.028 0.2 -0.169 C 6.639 11.944 6.569 11.728 6.329 11.664 z M 8.03 6.498 c -0.19 0.377 -0.213 0.622 0.032 0.959 C 8.29 7.12 8.292 6.878 8.03 6.498 z M 7.995 7.894 c -0.264 0.435 -0.264 0.435 -0.081 0.795 C 8.116 8.47 8.175 8.241 7.995 7.894 z M 9.693 8.857 c -0.025 -0.175 -0.096 -0.359 -0.279 -0.445 c -0.102 -0.048 -0.21 0.026 -0.21 0.165 c 0.002 0.207 0.101 0.377 0.279 0.464 C 9.582 9.087 9.693 9.023 9.693 8.857 z M 7.717 10.135 c 0.24 -0.376 0.257 -0.614 0.019 -0.928 C 7.494 9.517 7.5 9.757 7.717 10.135 z"/>
</svg>
